<svg id="Layer_1" data-name="Layer 1" xmlns="http://www.w3.org/2000/svg" viewBox="0 0 806 416"><title>counter-lifecycle</title><path d="M220.14,209.38l0.88-1.52a0.57,0.57,0,0,1,.83-0.17,8.12,8.12,0,0,0,3.7,1.52,2,2,0,0,0,2.23-1.89c0-1.25-1.05-2.11-3.11-2.94-2.3-.93-4.61-2.4-4.61-5.3,0-2.18,1.62-4.71,5.52-4.71a8.62,8.62,0,0,1,4.9,1.64,0.61,0.61,0,0,1,.15.81l-0.93,1.4a0.65,0.65,0,0,1-.86.29,8.07,8.07,0,0,0-3.41-1.35,2,2,0,0,0-2.16,1.72c0,1.15.91,1.94,2.89,2.75,2.38,1,5.12,2.38,5.12,5.54,0,2.52-2.18,4.85-5.64,4.85a7.89,7.89,0,0,1-5.39-1.91A0.48,0.48,0,0,1,220.14,209.38Z" style="fill:#3a3a3a"/><path d="M234.43,195.09a0.48,0.48,0,0,1,.47-0.47h2.28a0.46,0.46,0,0,1,.47.47v6.5h8v-6.5a0.46,0.46,0,0,1,.47-0.47h2.26a0.48,0.48,0,0,1,.47.47v16.23a0.48,0.48,0,0,1-.47.47H246.1a0.47,0.47,0,0,1-.47-0.47v-6.77h-8v6.77a0.47,0.47,0,0,1-.47.47H234.9a0.48,0.48,0,0,1-.47-0.47V195.09Z" style="fill:#3a3a3a"/><path d="M260.86,194.38a8.83,8.83,0,1,1-8.8,8.85A8.81,8.81,0,0,1,260.86,194.38Zm0,14.46a5.64,5.64,0,1,0-5.61-5.61A5.65,5.65,0,0,0,260.86,208.84Z" style="fill:#3a3a3a"/><path d="M271.26,195.21a0.43,0.43,0,0,1,.44-0.59H274a0.5,0.5,0,0,1,.44.34l2.55,9.78H277l3.9-10.1a0.4,0.4,0,0,1,.42-0.27h0.44a0.4,0.4,0,0,1,.42.27l3.92,10.1h0.1l2.5-9.78a0.5,0.5,0,0,1,.44-0.34h2.26a0.43,0.43,0,0,1,.44.59l-4.63,16.47a0.47,0.47,0,0,1-.44.34h-0.39a0.42,0.42,0,0,1-.42-0.27l-4.39-11.11h-0.12l-4.34,11.11a0.42,0.42,0,0,1-.42.27h-0.39a0.47,0.47,0,0,1-.44-0.34Z" style="fill:#3a3a3a"/><path d="M300.24,194.82a0.46,0.46,0,0,1,.47-0.44h0.61l10.2,10.84h0V195.09a0.46,0.46,0,0,1,.47-0.47h2.26a0.48,0.48,0,0,1,.47.47v16.5a0.46,0.46,0,0,1-.47.44h-0.59l-10.25-11.25h0v10.54a0.47,0.47,0,0,1-.47.47H300.7a0.48,0.48,0,0,1-.47-0.47v-16.5Z" style="fill:#3a3a3a"/><path d="M318.94,195.09a0.48,0.48,0,0,1,.47-0.47h2.33a0.46,0.46,0,0,1,.47.47v10a3.57,3.57,0,1,0,7.13,0V195.09a0.46,0.46,0,0,1,.47-0.47h2.33a0.48,0.48,0,0,1,.47.47v10.2a6.83,6.83,0,0,1-13.66,0v-10.2Z" style="fill:#3a3a3a"/><path d="M338.61,194.75a0.41,0.41,0,0,1,.44-0.37h0.39a0.45,0.45,0,0,1,.42.25l5.39,11.57h0.07l5.39-11.57a0.42,0.42,0,0,1,.42-0.25h0.39a0.41,0.41,0,0,1,.44.37l2.89,16.47a0.43,0.43,0,0,1-.44.56h-2.23a0.53,0.53,0,0,1-.47-0.37l-1.45-9.29H350.2l-4.29,9.63a0.42,0.42,0,0,1-.42.27h-0.44a0.44,0.44,0,0,1-.42-0.27l-4.34-9.63h-0.07l-1.42,9.29a0.47,0.47,0,0,1-.44.37h-2.21a0.45,0.45,0,0,1-.47-0.56Z" style="fill:#3a3a3a"/><path d="M358.22,195.09a0.46,0.46,0,0,1,.47-0.47h5.61c2.92,0,5.17,2,5.17,4.54a4.67,4.67,0,0,1-2.7,3.9,4.4,4.4,0,0,1,3.19,4c0,2.75-2.35,4.73-5.34,4.73h-5.93a0.47,0.47,0,0,1-.47-0.47V195.09Zm5.79,6.74a2.1,2.1,0,0,0,2.11-2.21,2,2,0,0,0-2.11-2.08h-2.62v4.29H364Zm0.34,7.06a2.19,2.19,0,0,0,2.21-2.23,2.37,2.37,0,0,0-2.5-2.13h-2.67v4.36h3Z" style="fill:#3a3a3a"/><path d="M373.35,195.09a0.46,0.46,0,0,1,.47-0.47h10a0.46,0.46,0,0,1,.47.47v2a0.46,0.46,0,0,1-.47.47h-7.26v4h6.06a0.48,0.48,0,0,1,.47.47v2a0.47,0.47,0,0,1-.47.47h-6.06v4.29h7.26a0.47,0.47,0,0,1,.47.47v2a0.47,0.47,0,0,1-.47.47h-10a0.47,0.47,0,0,1-.47-0.47V195.09Z" style="fill:#3a3a3a"/><path d="M387.77,195.09a0.46,0.46,0,0,1,.47-0.47h7a5.31,5.31,0,0,1,5.34,5.27,5.41,5.41,0,0,1-3.63,5l3.36,6.23a0.46,0.46,0,0,1-.42.71h-2.57a0.42,0.42,0,0,1-.39-0.22l-3.26-6.5H391v6.25a0.48,0.48,0,0,1-.47.47h-2.26a0.47,0.47,0,0,1-.47-0.47V195.09Zm7.21,7.35a2.5,2.5,0,0,0,2.43-2.5,2.44,2.44,0,0,0-2.43-2.38h-4v4.88h4Z" style="fill:#3a3a3a"/><path d="M228.74,305.65a8.3,8.3,0,0,1,5.93,2.28,0.46,0.46,0,0,1,0,.69l-1.5,1.54a0.39,0.39,0,0,1-.61,0,5.8,5.8,0,0,0-3.78-1.45,5.69,5.69,0,0,0,0,11.38,5.89,5.89,0,0,0,3.75-1.4,0.45,0.45,0,0,1,.61,0l1.52,1.57a0.47,0.47,0,0,1,0,.66,8.41,8.41,0,0,1-6,2.38A8.83,8.83,0,1,1,228.74,305.65Z" style="fill:#3a3a3a"/><path d="M237.91,306.36a0.46,0.46,0,0,1,.47-0.47h2.26a0.48,0.48,0,0,1,.47.47v13.75h6.25a0.47,0.47,0,0,1,.47.47v2a0.47,0.47,0,0,1-.47.47h-9a0.47,0.47,0,0,1-.47-0.47V306.36Z" style="fill:#3a3a3a"/><path d="M250.29,306.36a0.48,0.48,0,0,1,.47-0.47H253a0.48,0.48,0,0,1,.47.47v16.23a0.48,0.48,0,0,1-.47.47h-2.28a0.48,0.48,0,0,1-.47-0.47V306.36Z" style="fill:#3a3a3a"/><path d="M265.57,305.65a8.3,8.3,0,0,1,5.93,2.28,0.46,0.46,0,0,1,0,.69l-1.5,1.54a0.39,0.39,0,0,1-.61,0,5.8,5.8,0,0,0-3.78-1.45,5.69,5.69,0,0,0,0,11.38,5.89,5.89,0,0,0,3.75-1.4,0.45,0.45,0,0,1,.61,0l1.52,1.57a0.47,0.47,0,0,1,0,.66,8.41,8.41,0,0,1-6,2.38A8.83,8.83,0,1,1,265.57,305.65Z" style="fill:#3a3a3a"/><path d="M274.74,306.49a0.58,0.58,0,0,1,.59-0.59h2.16a0.6,0.6,0,0,1,.59.59v6.62l6.18-7a0.59,0.59,0,0,1,.47-0.24h2.45a0.52,0.52,0,0,1,.39.88l-6.4,7.21L288,322.2a0.54,0.54,0,0,1-.44.86h-2.67a0.53,0.53,0,0,1-.44-0.17l-6.4-7.89v7.48a0.6,0.6,0,0,1-.59.59h-2.16a0.58,0.58,0,0,1-.59-0.59v-16Z" style="fill:#3a3a3a"/><path d="M296.22,306.36a0.46,0.46,0,0,1,.47-0.47h5.61c2.92,0,5.17,2,5.17,4.54a4.67,4.67,0,0,1-2.7,3.9,4.4,4.4,0,0,1,3.19,4c0,2.75-2.35,4.73-5.34,4.73h-5.93a0.47,0.47,0,0,1-.47-0.47V306.36Zm5.79,6.74a2.1,2.1,0,0,0,2.11-2.21,2,2,0,0,0-2.11-2.08h-2.62v4.29H302Zm0.34,7.06a2.19,2.19,0,0,0,2.21-2.23,2.37,2.37,0,0,0-2.5-2.13h-2.67v4.36h3Z" style="fill:#3a3a3a"/><path d="M311.1,306.36a0.48,0.48,0,0,1,.47-0.47h2.33a0.46,0.46,0,0,1,.47.47v10a3.57,3.57,0,1,0,7.13,0V306.36a0.46,0.46,0,0,1,.47-0.47h2.33a0.48,0.48,0,0,1,.47.47v10.2a6.83,6.83,0,0,1-13.66,0v-10.2Z" style="fill:#3a3a3a"/><path d="M331.28,308.84h-3.75a0.46,0.46,0,0,1-.47-0.47v-2a0.46,0.46,0,0,1,.47-0.47h10.71a0.46,0.46,0,0,1,.47.47v2a0.46,0.46,0,0,1-.47.47h-3.75v13.75a0.48,0.48,0,0,1-.47.47h-2.28a0.48,0.48,0,0,1-.47-0.47V308.84Z" style="fill:#3a3a3a"/><path d="M343.88,308.84h-3.75a0.46,0.46,0,0,1-.47-0.47v-2a0.46,0.46,0,0,1,.47-0.47h10.71a0.46,0.46,0,0,1,.47.47v2a0.46,0.46,0,0,1-.47.47h-3.75v13.75a0.48,0.48,0,0,1-.47.47h-2.28a0.48,0.48,0,0,1-.47-0.47V308.84Z" style="fill:#3a3a3a"/><path d="M361.26,305.65a8.83,8.83,0,1,1-8.8,8.85A8.81,8.81,0,0,1,361.26,305.65Zm0,14.46a5.64,5.64,0,1,0-5.61-5.61A5.65,5.65,0,0,0,361.26,320.12Z" style="fill:#3a3a3a"/><path d="M373.3,306.09a0.46,0.46,0,0,1,.47-0.44h0.61l10.2,10.84h0V306.36a0.46,0.46,0,0,1,.47-0.47h2.26a0.48,0.48,0,0,1,.47.47v16.5a0.46,0.46,0,0,1-.47.44h-0.59l-10.25-11.25h0v10.54a0.47,0.47,0,0,1-.47.47h-2.23a0.48,0.48,0,0,1-.47-0.47v-16.5Z" style="fill:#3a3a3a"/><path d="M218.94,84a0.43,0.43,0,0,1,.42-0.64h2.5a0.45,0.45,0,0,1,.42.27L227,94.16h0.17l4.71-10.54a0.45,0.45,0,0,1,.42-0.27h2.5a0.43,0.43,0,0,1,.42.64l-7.6,16.5a0.44,0.44,0,0,1-.42.27h-0.25a0.44,0.44,0,0,1-.42-0.27Z" style="fill:#3a3a3a"/><path d="M234,99.87l7.62-16.5A0.44,0.44,0,0,1,242,83.1h0.24a0.42,0.42,0,0,1,.42.27l7.55,16.5a0.43,0.43,0,0,1-.42.64h-2.13A0.71,0.71,0,0,1,247,100l-1.2-2.65h-7.33l-1.2,2.65a0.74,0.74,0,0,1-.71.49h-2.13A0.43,0.43,0,0,1,234,99.87Zm10.59-5.22-2.45-5.39H242l-2.4,5.39h4.93Z" style="fill:#3a3a3a"/><path d="M252.45,83.81a0.47,0.47,0,0,1,.47-0.47h2.26a0.48,0.48,0,0,1,.47.47V97.57h6.25a0.47,0.47,0,0,1,.47.47v2a0.47,0.47,0,0,1-.47.47h-9a0.47,0.47,0,0,1-.47-0.47V83.81Z" style="fill:#3a3a3a"/><path d="M264.34,83.81a0.48,0.48,0,0,1,.47-0.47h2.33a0.46,0.46,0,0,1,.47.47v10a3.57,3.57,0,1,0,7.13,0V83.81a0.46,0.46,0,0,1,.47-0.47h2.33a0.48,0.48,0,0,1,.47.47V94a6.83,6.83,0,0,1-13.66,0V83.81Z" style="fill:#3a3a3a"/><path d="M282.22,83.81a0.46,0.46,0,0,1,.47-0.47h10a0.46,0.46,0,0,1,.47.47v2a0.46,0.46,0,0,1-.47.47H285.4v4h6.06a0.48,0.48,0,0,1,.47.47v2a0.47,0.47,0,0,1-.47.47H285.4v4.29h7.26a0.47,0.47,0,0,1,.47.47v2a0.47,0.47,0,0,1-.47.47h-10a0.47,0.47,0,0,1-.47-0.47V83.81Z" style="fill:#3a3a3a"/><path d="M26.3,199.86a0.47,0.47,0,0,1,.47-0.47h2a0.47,0.47,0,0,1,.47.47v4.83c0,1.3.66,2.11,1.79,2.11A2.17,2.17,0,0,0,33,205v-5.1c0-.37.15-0.47,0.54-0.47h1.86a0.47,0.47,0,0,1,.47.47v8.87a0.48,0.48,0,0,1-.47.47H34.48a0.5,0.5,0,0,1-.47-0.37L33.72,208a4.39,4.39,0,0,1-3.29,1.42c-3,0-4.14-2.33-4.14-4.83v-4.76Z" style="fill:#686868"/><path d="M38.26,208l0.66-1.32a0.37,0.37,0,0,1,.56-0.17,5.47,5.47,0,0,0,2.23.59,0.68,0.68,0,0,0,.83-0.61c0-.44-0.34-0.71-1.64-1.23-1.89-.73-2.77-1.74-2.77-3.24s1.1-2.89,3.6-2.89a5.64,5.64,0,0,1,3,.76,0.52,0.52,0,0,1,.22.66l-0.61,1.25a0.47,0.47,0,0,1-.59.17,5.81,5.81,0,0,0-2-.52c-0.59,0-.83.24-0.83,0.56s0.44,0.59,1.35,1c1.89,0.74,3.31,1.55,3.31,3.46,0,1.62-1.42,3-3.9,3a5.56,5.56,0,0,1-3.26-.91A0.42,0.42,0,0,1,38.26,208Z" style="fill:#686868"/><path d="M52,199.15a4.5,4.5,0,0,1,4.58,4.56,6.16,6.16,0,0,1,0,.66,0.47,0.47,0,0,1-.47.42H49.78a2.34,2.34,0,0,0,2.35,2.13,3.4,3.4,0,0,0,1.91-.61,0.46,0.46,0,0,1,.64,0l1,1.15a0.4,0.4,0,0,1,0,.64A5.28,5.28,0,0,1,52,209.44,5.15,5.15,0,0,1,52,199.15Zm1.72,3.92a1.83,1.83,0,0,0-1.79-1.67A1.93,1.93,0,0,0,50,203.07h3.7Z" style="fill:#686868"/><path d="M58.64,199.86a0.47,0.47,0,0,1,.47-0.47H60a0.45,0.45,0,0,1,.44.32l0.34,1a3.42,3.42,0,0,1,2.77-1.52c1.15,0,2.18.37,1.89,1l-0.91,1.59a0.44,0.44,0,0,1-.56.22,2.69,2.69,0,0,0-.71-0.15,2,2,0,0,0-1.74,1v5.93a0.46,0.46,0,0,1-.56.47H59.1a0.48,0.48,0,0,1-.47-0.47v-8.87Z" style="fill:#686868"/><path d="M72.19,194.22a1.67,1.67,0,0,1,1.67-1.69,1.69,1.69,0,1,1,0,3.38A1.67,1.67,0,0,1,72.19,194.22Zm0.22,5.64a0.47,0.47,0,0,1,.47-0.47h2a0.47,0.47,0,0,1,.47.47v8.87a0.48,0.48,0,0,1-.47.47h-2a0.48,0.48,0,0,1-.47-0.47v-8.87Z" style="fill:#686868"/><path d="M78.32,199.86a0.47,0.47,0,0,1,.47-0.47h0.93a0.43,0.43,0,0,1,.42.29l0.34,0.91a4.82,4.82,0,0,1,3.46-1.45c3.11,0,4.36,2.33,4.36,4.88v4.71a0.48,0.48,0,0,1-.47.47h-2a0.47,0.47,0,0,1-.47-0.47v-4.85a1.81,1.81,0,0,0-1.84-2.08,2.46,2.46,0,0,0-2.3,1.54v5.39c0,0.34-.15.47-0.61,0.47H78.79a0.48,0.48,0,0,1-.47-0.47v-8.87Z" style="fill:#686868"/><path d="M91.49,202H90.66a0.46,0.46,0,0,1-.44-0.47v-1.64a0.45,0.45,0,0,1,.44-0.47h0.83v-2.72A0.48,0.48,0,0,1,92,196.2l2,0a0.46,0.46,0,0,1,.44.47v2.75h2.16a0.45,0.45,0,0,1,.47.47v1.64a0.47,0.47,0,0,1-.47.47H94.41v3.92a0.66,0.66,0,0,0,.76.79,3.94,3.94,0,0,0,1.2-.27,0.38,0.38,0,0,1,.54.27l0.49,1.54a0.44,0.44,0,0,1-.27.59,9.21,9.21,0,0,1-2.92.64c-1.89,0-2.72-1.18-2.72-3.16V202Z" style="fill:#686868"/><path d="M103.7,199.15a4.5,4.5,0,0,1,4.58,4.56,6.16,6.16,0,0,1,0,.66,0.47,0.47,0,0,1-.47.42h-6.28a2.34,2.34,0,0,0,2.35,2.13,3.4,3.4,0,0,0,1.91-.61,0.46,0.46,0,0,1,.64,0l1,1.15a0.4,0.4,0,0,1,0,.64,5.28,5.28,0,0,1-3.65,1.35A5.15,5.15,0,0,1,103.7,199.15Zm1.72,3.92a1.83,1.83,0,0,0-1.79-1.67,1.93,1.93,0,0,0-1.91,1.67h3.7Z" style="fill:#686868"/><path d="M110.34,199.86a0.47,0.47,0,0,1,.47-0.47h0.93a0.45,0.45,0,0,1,.44.32l0.34,1a3.42,3.42,0,0,1,2.77-1.52c1.15,0,2.18.37,1.89,1l-0.91,1.59a0.44,0.44,0,0,1-.56.22,2.69,2.69,0,0,0-.71-0.15,2,2,0,0,0-1.74,1v5.93a0.46,0.46,0,0,1-.56.47h-1.89a0.48,0.48,0,0,1-.47-0.47v-8.87Z" style="fill:#686868"/><path d="M119.29,202h-0.83a0.47,0.47,0,0,1-.47-0.47v-1.64a0.45,0.45,0,0,1,.47-0.47h0.83v-2.65c0-3.24,2-5,4.58-5a4.81,4.81,0,0,1,2.89,1,0.48,0.48,0,0,1,.1.56L126,194.88a0.42,0.42,0,0,1-.59.12,3.06,3.06,0,0,0-1.45-.49c-1.05,0-1.64.81-1.64,2.23v2.65h2.45a0.45,0.45,0,0,1,.47.47v1.64a0.47,0.47,0,0,1-.47.47h-2.45v6.77a0.48,0.48,0,0,1-.47.47h-2.13a0.48,0.48,0,0,1-.47-0.47V202Z" style="fill:#686868"/><path d="M130.35,203a6.3,6.3,0,0,1,1.79.27c0-1.25-.37-1.69-1.27-1.69a11.82,11.82,0,0,0-2.75.37,0.43,0.43,0,0,1-.56-0.44l-0.22-1.27a0.48,0.48,0,0,1,.34-0.61,13.15,13.15,0,0,1,3.33-.47c3.06,0,3.78,1.59,3.78,4.27v5.32a0.48,0.48,0,0,1-.47.47h-0.88a0.44,0.44,0,0,1-.42-0.34l-0.29-.66a4.21,4.21,0,0,1-3,1.25,3.13,3.13,0,0,1-3.31-3.36C126.43,204.34,127.85,203,130.35,203Zm0,4.36a2.27,2.27,0,0,0,1.69-1v-1.35a3.84,3.84,0,0,0-1.37-.29,1.4,1.4,0,0,0-1.59,1.32A1.22,1.22,0,0,0,130.4,207.36Z" style="fill:#686868"/><path d="M142.07,199.15a4.49,4.49,0,0,1,3.63,1.74,0.47,0.47,0,0,1-.12.69l-1.13,1.08a0.43,0.43,0,0,1-.61-0.07,2.31,2.31,0,0,0-1.69-.78,2.46,2.46,0,0,0-2.4,2.5,2.42,2.42,0,0,0,2.38,2.5,2.54,2.54,0,0,0,2-.93,0.46,0.46,0,0,1,.61-0.07l1.05,0.91a0.48,0.48,0,0,1,.17.69,4.37,4.37,0,0,1-3.87,2.06,5.17,5.17,0,0,1-5.2-5.15A5.24,5.24,0,0,1,142.07,199.15Z" style="fill:#686868"/><path d="M152.32,199.15a4.5,4.5,0,0,1,4.58,4.56,6.16,6.16,0,0,1,0,.66,0.47,0.47,0,0,1-.47.42h-6.28a2.34,2.34,0,0,0,2.35,2.13,3.4,3.4,0,0,0,1.91-.61,0.46,0.46,0,0,1,.64,0l1,1.15a0.4,0.4,0,0,1,0,.64,5.28,5.28,0,0,1-3.65,1.35A5.15,5.15,0,0,1,152.32,199.15Zm1.72,3.92a1.83,1.83,0,0,0-1.79-1.67,1.93,1.93,0,0,0-1.91,1.67H154Z" style="fill:#686868"/><path d="M650.34,193.18a0.48,0.48,0,0,1,.47-0.47h2.08a0.48,0.48,0,0,1,.47.47v7.09a5.89,5.89,0,0,1,2.18-.44,4.85,4.85,0,0,1,4.85,5.15,4.91,4.91,0,0,1-4.71,5.15,4.3,4.3,0,0,1-3.21-1.47l-0.24.76a0.54,0.54,0,0,1-.47.47h-1a0.48,0.48,0,0,1-.47-0.47V193.18Zm5,14.29a2.34,2.34,0,0,0,2.23-2.5,2.41,2.41,0,0,0-2.38-2.5,3.17,3.17,0,0,0-1.91.56v2.84A2.14,2.14,0,0,0,655.31,207.47Z" style="fill:#686868"/><path d="M662.42,200.53a0.47,0.47,0,0,1,.47-0.47h2a0.47,0.47,0,0,1,.47.47v4.83c0,1.3.66,2.11,1.79,2.11a2.17,2.17,0,0,0,2-1.84v-5.1c0-.37.15-0.47,0.54-0.47h1.86a0.47,0.47,0,0,1,.47.47v8.87a0.48,0.48,0,0,1-.47.47h-0.91a0.5,0.5,0,0,1-.47-0.37l-0.29-.81a4.39,4.39,0,0,1-3.29,1.42c-3,0-4.14-2.33-4.14-4.83v-4.76Z" style="fill:#686868"/><path d="M674.39,208.69l0.66-1.32a0.37,0.37,0,0,1,.56-0.17,5.47,5.47,0,0,0,2.23.59,0.68,0.68,0,0,0,.83-0.61c0-.44-0.34-0.71-1.64-1.23-1.89-.73-2.77-1.74-2.77-3.24s1.1-2.89,3.6-2.89a5.64,5.64,0,0,1,3,.76,0.52,0.52,0,0,1,.22.66l-0.61,1.25a0.47,0.47,0,0,1-.59.17,5.81,5.81,0,0,0-2-.52c-0.59,0-.83.24-0.83,0.56s0.44,0.59,1.35,1c1.89,0.74,3.31,1.55,3.31,3.46,0,1.62-1.42,3-3.9,3a5.56,5.56,0,0,1-3.26-.91A0.42,0.42,0,0,1,674.39,208.69Z" style="fill:#686868"/><path d="M683.63,194.89a1.67,1.67,0,0,1,1.67-1.69,1.69,1.69,0,1,1,0,3.38A1.67,1.67,0,0,1,683.63,194.89Zm0.22,5.64a0.47,0.47,0,0,1,.47-0.47h2a0.47,0.47,0,0,1,.47.47v8.87a0.48,0.48,0,0,1-.47.47h-2a0.48,0.48,0,0,1-.47-0.47v-8.87Z" style="fill:#686868"/><path d="M689.76,200.53a0.47,0.47,0,0,1,.47-0.47h0.93a0.43,0.43,0,0,1,.42.29l0.34,0.91a4.82,4.82,0,0,1,3.46-1.45c3.11,0,4.36,2.33,4.36,4.88v4.71a0.48,0.48,0,0,1-.47.47h-2a0.47,0.47,0,0,1-.47-0.47v-4.85a1.81,1.81,0,0,0-1.84-2.08,2.46,2.46,0,0,0-2.3,1.54v5.39c0,0.34-.15.47-0.61,0.47h-1.81a0.48,0.48,0,0,1-.47-0.47v-8.87Z" style="fill:#686868"/><path d="M706.75,199.82a4.5,4.5,0,0,1,4.58,4.56,6.16,6.16,0,0,1,0,.66,0.47,0.47,0,0,1-.47.42h-6.28a2.34,2.34,0,0,0,2.35,2.13,3.4,3.4,0,0,0,1.91-.61,0.46,0.46,0,0,1,.64,0l1,1.15a0.4,0.4,0,0,1,0,.64,5.28,5.28,0,0,1-3.65,1.35A5.15,5.15,0,0,1,706.75,199.82Zm1.72,3.92a1.83,1.83,0,0,0-1.79-1.67,1.93,1.93,0,0,0-1.91,1.67h3.7Z" style="fill:#686868"/><path d="M712.86,208.69l0.66-1.32a0.37,0.37,0,0,1,.56-0.17,5.47,5.47,0,0,0,2.23.59,0.68,0.68,0,0,0,.83-0.61c0-.44-0.34-0.71-1.64-1.23-1.89-.73-2.77-1.74-2.77-3.24s1.1-2.89,3.6-2.89a5.64,5.64,0,0,1,3,.76,0.52,0.52,0,0,1,.22.66L719,202.49a0.47,0.47,0,0,1-.59.17,5.81,5.81,0,0,0-2-.52c-0.59,0-.83.24-0.83,0.56s0.44,0.59,1.35,1c1.89,0.74,3.31,1.55,3.31,3.46,0,1.62-1.42,3-3.9,3a5.56,5.56,0,0,1-3.26-.91A0.42,0.42,0,0,1,712.86,208.69Z" style="fill:#686868"/><path d="M721.78,208.69l0.66-1.32a0.37,0.37,0,0,1,.56-0.17,5.47,5.47,0,0,0,2.23.59,0.68,0.68,0,0,0,.83-0.61c0-.44-0.34-0.71-1.64-1.23-1.89-.73-2.77-1.74-2.77-3.24s1.1-2.89,3.6-2.89a5.64,5.64,0,0,1,3,.76,0.52,0.52,0,0,1,.22.66l-0.61,1.25a0.47,0.47,0,0,1-.59.17,5.81,5.81,0,0,0-2-.52c-0.59,0-.83.24-0.83,0.56s0.44,0.59,1.35,1c1.89,0.74,3.31,1.55,3.31,3.46,0,1.62-1.42,3-3.9,3a5.56,5.56,0,0,1-3.26-.91A0.42,0.42,0,0,1,721.78,208.69Z" style="fill:#686868"/><path d="M736.66,193.18a0.48,0.48,0,0,1,.47-0.47h2.06a0.48,0.48,0,0,1,.47.47v16.23a0.48,0.48,0,0,1-.47.47h-2.06a0.48,0.48,0,0,1-.47-0.47V193.18Z" style="fill:#686868"/><path d="M746.86,199.82a5.15,5.15,0,1,1-5,5.12A5.12,5.12,0,0,1,746.86,199.82Zm0,7.65a2.44,2.44,0,0,0,2.35-2.53A2.36,2.36,0,1,0,746.86,207.47Z" style="fill:#686868"/><path d="M754.88,206.39a3.66,3.66,0,0,1-.74-2.3,4.27,4.27,0,0,1,4.27-4.27h4.46a0.45,0.45,0,0,1,.47.47v0.81a0.43,0.43,0,0,1-.27.42l-1.37.44a3.19,3.19,0,0,1,1,2.5,4,4,0,0,1-4.19,3.85c-0.93,0-1.57-.2-2-0.2a1,1,0,0,0-.91.93,0.88,0.88,0,0,0,1,.83h3.14c2.23,0,4,1.27,4,3.43s-1.81,4.17-5.37,4.17-5-1.79-5-3.36a2.76,2.76,0,0,1,1.47-2.33v-0.07a2.65,2.65,0,0,1-1.84-2.58A3.23,3.23,0,0,1,754.88,206.39Zm3.51,8.63c1.37,0,2.28-.61,2.28-1.55,0-.44-0.34-1.2-1.79-1.2a11.41,11.41,0,0,0-1.59.1,1.4,1.4,0,0,0-1.05,1.2C756.23,214.43,757.06,215,758.38,215Zm0.1-9a1.77,1.77,0,0,0,0-3.53A1.77,1.77,0,0,0,758.48,206Z" style="fill:#686868"/><path d="M765.18,194.89a1.67,1.67,0,0,1,1.67-1.69,1.69,1.69,0,1,1,0,3.38A1.67,1.67,0,0,1,765.18,194.89Zm0.22,5.64a0.47,0.47,0,0,1,.47-0.47h2a0.47,0.47,0,0,1,.47.47v8.87a0.48,0.48,0,0,1-.47.47h-2a0.48,0.48,0,0,1-.47-0.47v-8.87Z" style="fill:#686868"/><path d="M775.77,199.82a4.49,4.49,0,0,1,3.63,1.74,0.47,0.47,0,0,1-.12.69l-1.13,1.08a0.43,0.43,0,0,1-.61-0.07,2.31,2.31,0,0,0-1.69-.78,2.46,2.46,0,0,0-2.4,2.5,2.42,2.42,0,0,0,2.38,2.5,2.54,2.54,0,0,0,2-.93,0.46,0.46,0,0,1,.61-0.07l1.05,0.91a0.48,0.48,0,0,1,.17.69,4.37,4.37,0,0,1-3.87,2.06,5.17,5.17,0,0,1-5.2-5.15A5.24,5.24,0,0,1,775.77,199.82Z" style="fill:#686868"/><path d="M59.66,311.52a0.47,0.47,0,0,1,.47-0.47h2a0.47,0.47,0,0,1,.47.47v4.83c0,1.3.66,2.11,1.79,2.11a2.17,2.17,0,0,0,2-1.84v-5.1c0-.37.15-0.47,0.54-0.47h1.86a0.47,0.47,0,0,1,.47.47v8.87a0.48,0.48,0,0,1-.47.47H67.85a0.5,0.5,0,0,1-.47-0.37l-0.29-.81a4.39,4.39,0,0,1-3.29,1.42c-3,0-4.14-2.33-4.14-4.83v-4.76Z" style="fill:#686868"/><path d="M71.63,319.69l0.66-1.32a0.37,0.37,0,0,1,.56-0.17,5.47,5.47,0,0,0,2.23.59,0.68,0.68,0,0,0,.83-0.61c0-.44-0.34-0.71-1.64-1.23-1.89-.73-2.77-1.74-2.77-3.24s1.1-2.89,3.6-2.89a5.64,5.64,0,0,1,3,.76,0.52,0.52,0,0,1,.22.66l-0.61,1.25a0.47,0.47,0,0,1-.59.17,5.81,5.81,0,0,0-2-.52c-0.59,0-.83.24-0.83,0.56s0.44,0.59,1.35,1c1.89,0.74,3.31,1.55,3.31,3.46,0,1.62-1.42,3-3.9,3a5.56,5.56,0,0,1-3.26-.91A0.42,0.42,0,0,1,71.63,319.69Z" style="fill:#686868"/><path d="M85.36,310.81a4.5,4.5,0,0,1,4.58,4.56,6.16,6.16,0,0,1,0,.66,0.47,0.47,0,0,1-.47.42H83.15a2.34,2.34,0,0,0,2.35,2.13,3.4,3.4,0,0,0,1.91-.61,0.46,0.46,0,0,1,.64,0l1,1.15a0.4,0.4,0,0,1,0,.64,5.28,5.28,0,0,1-3.65,1.35A5.15,5.15,0,0,1,85.36,310.81Zm1.72,3.92a1.83,1.83,0,0,0-1.79-1.67,1.93,1.93,0,0,0-1.91,1.67h3.7Z" style="fill:#686868"/><path d="M92,311.52a0.47,0.47,0,0,1,.47-0.47H93.4a0.45,0.45,0,0,1,.44.32l0.34,1A3.42,3.42,0,0,1,97,310.81c1.15,0,2.18.37,1.89,1l-0.91,1.59a0.44,0.44,0,0,1-.56.22,2.69,2.69,0,0,0-.71-0.15,2,2,0,0,0-1.74,1v5.93a0.46,0.46,0,0,1-.56.47H92.47A0.48,0.48,0,0,1,92,320.4v-8.87Z" style="fill:#686868"/><path d="M110,310.81a4.5,4.5,0,0,1,4.58,4.56,6.16,6.16,0,0,1,0,.66,0.47,0.47,0,0,1-.47.42h-6.28a2.34,2.34,0,0,0,2.35,2.13,3.4,3.4,0,0,0,1.91-.61,0.46,0.46,0,0,1,.64,0l1,1.15a0.4,0.4,0,0,1,0,.64,5.28,5.28,0,0,1-3.65,1.35A5.15,5.15,0,0,1,110,310.81Zm1.72,3.92a1.83,1.83,0,0,0-1.79-1.67,1.93,1.93,0,0,0-1.91,1.67h3.7Z" style="fill:#686868"/><path d="M115.39,311.65a0.37,0.37,0,0,1,.34-0.59h2.13a0.45,0.45,0,0,1,.44.27l2,4.56h0l2.11-4.56a0.54,0.54,0,0,1,.59-0.27H125a0.36,0.36,0,0,1,.34.59l-4.49,9.22a0.46,0.46,0,0,1-.42.24h-0.12a0.46,0.46,0,0,1-.42-0.24Z" style="fill:#686868"/><path d="M131.21,310.81a4.5,4.5,0,0,1,4.58,4.56,6.16,6.16,0,0,1,0,.66,0.47,0.47,0,0,1-.47.42H129a2.34,2.34,0,0,0,2.35,2.13,3.4,3.4,0,0,0,1.91-.61,0.46,0.46,0,0,1,.64,0l1,1.15a0.4,0.4,0,0,1,0,.64,5.28,5.28,0,0,1-3.65,1.35A5.15,5.15,0,0,1,131.21,310.81Zm1.72,3.92a1.83,1.83,0,0,0-1.79-1.67,1.93,1.93,0,0,0-1.91,1.67h3.7Z" style="fill:#686868"/><path d="M137.85,311.52a0.47,0.47,0,0,1,.47-0.47h0.93a0.43,0.43,0,0,1,.42.29l0.34,0.91a4.82,4.82,0,0,1,3.46-1.45c3.11,0,4.36,2.33,4.36,4.88v4.71a0.48,0.48,0,0,1-.47.47h-2a0.47,0.47,0,0,1-.47-0.47v-4.85a1.81,1.81,0,0,0-1.84-2.08,2.46,2.46,0,0,0-2.3,1.54v5.39c0,0.34-.15.47-0.61,0.47h-1.81a0.48,0.48,0,0,1-.47-0.47v-8.87Z" style="fill:#686868"/><path d="M151,313.63h-0.83a0.46,0.46,0,0,1-.44-0.47v-1.64a0.45,0.45,0,0,1,.44-0.47H151v-2.72a0.48,0.48,0,0,1,.47-0.47l2,0a0.46,0.46,0,0,1,.44.47v2.75h2.16a0.45,0.45,0,0,1,.47.47v1.64a0.47,0.47,0,0,1-.47.47h-2.16v3.92a0.66,0.66,0,0,0,.76.79,3.94,3.94,0,0,0,1.2-.27,0.38,0.38,0,0,1,.54.27l0.49,1.54a0.44,0.44,0,0,1-.27.59,9.21,9.21,0,0,1-2.92.64c-1.89,0-2.72-1.18-2.72-3.16v-4.31Z" style="fill:#686868"/><path d="M111.23,97.14l0.66-1.32a0.37,0.37,0,0,1,.56-0.17,5.47,5.47,0,0,0,2.23.59,0.68,0.68,0,0,0,.83-0.61c0-.44-0.34-0.71-1.64-1.23-1.89-.73-2.77-1.74-2.77-3.24s1.1-2.89,3.6-2.89a5.64,5.64,0,0,1,3,.76,0.52,0.52,0,0,1,.22.66l-0.61,1.25a0.47,0.47,0,0,1-.59.17,5.81,5.81,0,0,0-2-.52c-0.59,0-.83.24-0.83,0.56s0.44,0.59,1.35,1c1.89,0.74,3.31,1.55,3.31,3.46,0,1.62-1.42,3-3.9,3a5.56,5.56,0,0,1-3.26-.91A0.42,0.42,0,0,1,111.23,97.14Z" style="fill:#686868"/><path d="M121.21,91.08h-0.83a0.46,0.46,0,0,1-.44-0.47V89a0.45,0.45,0,0,1,.44-0.47h0.83V85.79a0.48,0.48,0,0,1,.47-0.47l2,0a0.46,0.46,0,0,1,.44.47v2.75h2.16a0.45,0.45,0,0,1,.47.47v1.64a0.47,0.47,0,0,1-.47.47h-2.16V95a0.66,0.66,0,0,0,.76.79,4,4,0,0,0,1.2-.27,0.38,0.38,0,0,1,.54.27l0.49,1.54a0.44,0.44,0,0,1-.27.59,9.21,9.21,0,0,1-2.92.64c-1.89,0-2.72-1.18-2.72-3.16V91.08Z" style="fill:#686868"/><path d="M132.36,92.11a6.3,6.3,0,0,1,1.79.27c0-1.25-.37-1.69-1.27-1.69a11.82,11.82,0,0,0-2.75.37,0.43,0.43,0,0,1-.56-0.44l-0.22-1.27a0.48,0.48,0,0,1,.34-0.61,13.17,13.17,0,0,1,3.33-.47c3.06,0,3.78,1.59,3.78,4.27v5.32a0.48,0.48,0,0,1-.47.47h-0.88A0.44,0.44,0,0,1,135,98l-0.29-.66a4.21,4.21,0,0,1-3,1.25,3.13,3.13,0,0,1-3.31-3.36C128.44,93.46,129.86,92.11,132.36,92.11Zm0,4.36a2.26,2.26,0,0,0,1.69-1V94.17a3.84,3.84,0,0,0-1.37-.29,1.4,1.4,0,0,0-1.59,1.32A1.22,1.22,0,0,0,132.41,96.48Z" style="fill:#686868"/><path d="M140.13,91.08H139.3a0.46,0.46,0,0,1-.44-0.47V89a0.45,0.45,0,0,1,.44-0.47h0.83V85.79a0.48,0.48,0,0,1,.47-0.47l2,0a0.46,0.46,0,0,1,.44.47v2.75h2.16a0.45,0.45,0,0,1,.47.47v1.64a0.47,0.47,0,0,1-.47.47H143V95a0.66,0.66,0,0,0,.76.79,3.93,3.93,0,0,0,1.2-.27,0.38,0.38,0,0,1,.54.27L146,97.33a0.44,0.44,0,0,1-.27.59,9.2,9.2,0,0,1-2.92.64c-1.89,0-2.72-1.18-2.72-3.16V91.08Z" style="fill:#686868"/><path d="M152.34,88.26a4.5,4.5,0,0,1,4.58,4.56,6.16,6.16,0,0,1,0,.66,0.47,0.47,0,0,1-.47.42h-6.28A2.34,2.34,0,0,0,152.49,96a3.4,3.4,0,0,0,1.91-.61,0.46,0.46,0,0,1,.64,0l1,1.15a0.4,0.4,0,0,1,0,.64,5.28,5.28,0,0,1-3.65,1.35A5.15,5.15,0,0,1,152.34,88.26Zm1.72,3.92a1.83,1.83,0,0,0-1.79-1.67,1.93,1.93,0,0,0-1.91,1.67h3.7Z" style="fill:#686868"/><g style="opacity:0.4"><line x1="257.69" y1="126.34" x2="257.69" y2="165.92" style="fill:none;stroke:#3b97d3;stroke-miterlimit:10;stroke-width:3px"/><polygon points="251.7 164.17 257.69 174.53 263.67 164.17 251.7 164.17" style="fill:#3b97d3"/><line x1="257.69" y1="237.61" x2="257.69" y2="277.2" style="fill:none;stroke:#3b97d3;stroke-miterlimit:10;stroke-width:3px"/><polygon points="251.7 275.44 257.69 285.81 263.67 275.44 251.7 275.44" style="fill:#3b97d3"/><polyline points="257.69 354.39 257.69 390.81 548.51 390.81 548.51 264.4" style="fill:none;stroke:#3b97d3;stroke-miterlimit:10;stroke-width:3px"/><polygon points="554.5 266.15 548.51 255.79 542.53 266.15 554.5 266.15" style="fill:#3b97d3"/><polyline points="548.51 154.97 548.51 25.19 257.69 25.19 257.69 52.01" style="fill:none;stroke:#3b97d3;stroke-miterlimit:10;stroke-width:3px"/><polygon points="251.7 50.25 257.69 60.62 263.67 50.25 251.7 50.25" style="fill:#3b97d3"/></g><line x1="171.09" y1="93.41" x2="207.06" y2="93.41" style="fill:none;stroke:#14a085;stroke-miterlimit:10"/><line x1="171.09" y1="203.2" x2="207.06" y2="203.2" style="fill:none;stroke:#14a085;stroke-miterlimit:10"/><line x1="599.57" y1="203.2" x2="635.54" y2="203.2" style="fill:none;stroke:#14a085;stroke-miterlimit:10"/><line x1="171.09" y1="314.6" x2="207.06" y2="314.6" style="fill:none;stroke:#14a085;stroke-miterlimit:10"/><path d="M494,182.25a8.31,8.31,0,0,1,5.94,2.28,0.46,0.46,0,0,1,0,.69l-1.5,1.55a0.39,0.39,0,0,1-.61,0,5.81,5.81,0,0,0-3.78-1.45,5.7,5.7,0,0,0,0,11.39,5.9,5.9,0,0,0,3.76-1.4,0.45,0.45,0,0,1,.61,0l1.52,1.57a0.47,0.47,0,0,1,0,.66,8.43,8.43,0,0,1-6,2.38A8.84,8.84,0,1,1,494,182.25Z" style="fill:#3a3a3a"/><path d="M503.18,183a0.48,0.48,0,0,1,.47-0.47h2.28a0.47,0.47,0,0,1,.47.47v6.51h8V183a0.47,0.47,0,0,1,.47-0.47h2.26a0.48,0.48,0,0,1,.47.47v16.26a0.48,0.48,0,0,1-.47.47h-2.26a0.47,0.47,0,0,1-.47-0.47v-6.78h-8v6.78a0.47,0.47,0,0,1-.47.47h-2.28a0.48,0.48,0,0,1-.47-0.47V183Z" style="fill:#3a3a3a"/><path d="M519.83,199l7.64-16.52a0.44,0.44,0,0,1,.42-0.27h0.25a0.42,0.42,0,0,1,.42.27L536.11,199a0.43,0.43,0,0,1-.42.64h-2.14a0.71,0.71,0,0,1-.71-0.49l-1.2-2.65H524.3l-1.2,2.65a0.74,0.74,0,0,1-.71.49h-2.14A0.43,0.43,0,0,1,519.83,199Zm10.61-5.23-2.46-5.4h-0.07l-2.41,5.4h4.94Z" style="fill:#3a3a3a"/><path d="M538.35,182.69a0.46,0.46,0,0,1,.47-0.44h0.61l10.21,10.85h0V183a0.47,0.47,0,0,1,.47-0.47h2.26a0.48,0.48,0,0,1,.47.47v16.53a0.46,0.46,0,0,1-.47.44h-0.59l-10.26-11.27h0v10.56a0.47,0.47,0,0,1-.47.47h-2.23a0.48,0.48,0,0,1-.47-0.47V182.69Z" style="fill:#3a3a3a"/><path d="M564.92,182.25a9.28,9.28,0,0,1,6,2.28,0.48,0.48,0,0,1,0,.69l-1.52,1.6a0.42,0.42,0,0,1-.64,0,5.57,5.57,0,0,0-3.71-1.42,5.66,5.66,0,0,0,0,11.32,7.69,7.69,0,0,0,2.92-.61V194h-2a0.45,0.45,0,0,1-.47-0.44v-1.94a0.45,0.45,0,0,1,.47-0.47h4.71a0.46,0.46,0,0,1,.44.47v6.29a0.47,0.47,0,0,1-.2.39,12.41,12.41,0,0,1-6.09,1.6A8.83,8.83,0,0,1,564.92,182.25Z" style="fill:#3a3a3a"/><path d="M574.82,183a0.47,0.47,0,0,1,.47-0.47h10a0.47,0.47,0,0,1,.47.47v2a0.47,0.47,0,0,1-.47.47H578v4h6.07a0.48,0.48,0,0,1,.47.47v2a0.47,0.47,0,0,1-.47.47H578v4.3h7.27a0.47,0.47,0,0,1,.47.47v2a0.47,0.47,0,0,1-.47.47h-10a0.47,0.47,0,0,1-.47-0.47V183Z" style="fill:#3a3a3a"/><path d="M485.81,212.16a0.46,0.46,0,0,1,.47-0.44h0.61l10.21,10.85h0V212.43a0.47,0.47,0,0,1,.47-0.47h2.26a0.48,0.48,0,0,1,.47.47V229a0.46,0.46,0,0,1-.47.44h-0.59L489,218.13h0v10.56a0.47,0.47,0,0,1-.47.47h-2.23a0.48,0.48,0,0,1-.47-0.47V212.16Z" style="fill:#3a3a3a"/><path d="M504.54,212.43A0.48,0.48,0,0,1,505,212h2.33a0.47,0.47,0,0,1,.47.47v10a3.58,3.58,0,1,0,7.15,0V212.43a0.47,0.47,0,0,1,.47-0.47h2.33a0.48,0.48,0,0,1,.47.47v10.21a6.84,6.84,0,0,1-13.68,0V212.43Z" style="fill:#3a3a3a"/><path d="M524.24,212.09a0.41,0.41,0,0,1,.44-0.37h0.39a0.45,0.45,0,0,1,.42.25l5.4,11.59H531l5.4-11.59a0.42,0.42,0,0,1,.42-0.25h0.39a0.41,0.41,0,0,1,.44.37l2.9,16.5a0.43,0.43,0,0,1-.44.56h-2.23a0.53,0.53,0,0,1-.47-0.37l-1.45-9.31h-0.07l-4.3,9.65a0.42,0.42,0,0,1-.42.27H530.7a0.44,0.44,0,0,1-.42-0.27l-4.35-9.65h-0.07l-1.42,9.31a0.48,0.48,0,0,1-.44.37h-2.21a0.45,0.45,0,0,1-.47-0.56Z" style="fill:#3a3a3a"/><path d="M543.89,212.43a0.47,0.47,0,0,1,.47-0.47H550c2.92,0,5.18,2,5.18,4.54a4.68,4.68,0,0,1-2.7,3.9,4.41,4.41,0,0,1,3.19,4c0,2.75-2.36,4.74-5.35,4.74h-5.94a0.47,0.47,0,0,1-.47-0.47V212.43Zm5.8,6.75a2.1,2.1,0,0,0,2.11-2.21,2,2,0,0,0-2.11-2.09h-2.63v4.3h2.63Zm0.34,7.07a2.19,2.19,0,0,0,2.21-2.23,2.38,2.38,0,0,0-2.5-2.14h-2.68v4.37h3Z" style="fill:#3a3a3a"/><path d="M559,212.43a0.47,0.47,0,0,1,.47-0.47h10a0.47,0.47,0,0,1,.47.47v2a0.47,0.47,0,0,1-.47.47h-7.27v4h6.07a0.48,0.48,0,0,1,.47.47v2a0.47,0.47,0,0,1-.47.47h-6.07v4.3h7.27a0.47,0.47,0,0,1,.47.47v2a0.47,0.47,0,0,1-.47.47h-10a0.47,0.47,0,0,1-.47-0.47V212.43Z" style="fill:#3a3a3a"/><path d="M573.48,212.43a0.47,0.47,0,0,1,.47-0.47h7a5.32,5.32,0,0,1,5.35,5.28,5.42,5.42,0,0,1-3.63,5l3.36,6.24a0.46,0.46,0,0,1-.42.71h-2.58a0.42,0.42,0,0,1-.39-0.22l-3.27-6.51h-2.73v6.26a0.48,0.48,0,0,1-.47.47h-2.26a0.47,0.47,0,0,1-.47-0.47V212.43Zm7.22,7.37a2.5,2.5,0,0,0,2.43-2.5,2.44,2.44,0,0,0-2.43-2.38h-4v4.89h4Z" style="fill:#3a3a3a"/></svg>